<svg xmlns="http://www.w3.org/2000/svg" width="1600" height="120" viewBox="0 0 1600 120" fill="none">
  <defs>
    <linearGradient id="grad" x1="0" y1="0" x2="1" y2="0">
      <stop offset="0%" stop-color="#00A0FF"/>
      <stop offset="100%" stop-color="#7FDFFF"/>
    </linearGradient>
    <filter id="glitchA" x="-20%" y="-50%" width="140%" height="200%">
      <feTurbulence type="fractalNoise" baseFrequency="0.005" numOctaves="2" seed="2" stitchTiles="stitch" result="noise"/>
      <feDisplacementMap in="SourceGraphic" in2="noise" scale="6" xChannelSelector="R" yChannelSelector="G"/>
    </filter>
    <filter id="glitchB" x="-20%" y="-50%" width="140%" height="200%">
      <feTurbulence type="fractalNoise" baseFrequency="0.01" numOctaves="1" seed="8" stitchTiles="stitch" result="noise"/>
      <feDisplacementMap in="SourceGraphic" in2="noise" scale="10" xChannelSelector="B" yChannelSelector="R"/>
    </filter>
  </defs>

  <path d="M 0 60 L 0 32 L 80.0 32 L 80.0 88 L 160 88 L 160 32 L 240.0 32 L 240.0 88 L 320 88 L 320 32 L 400.0 32 L 400.0 88 L 480 88 L 480 32 L 560.0 32 L 560.0 88 L 640 88 L 640 32 L 720.0 32 L 720.0 88 L 800 88 L 800 32 L 880.0 32 L 880.0 88 L 960 88 L 960 32 L 1040.0 32 L 1040.0 88 L 1120 88 L 1120 32 L 1200.0 32 L 1200.0 88 L 1280 88 L 1280 32 L 1360.0 32 L 1360.0 88 L 1440 88 L 1440 32 L 1520.0 32 L 1520.0 88 L 1600 88 L 1600 32 L 1680.0 32 L 1680.0 88 L 1760 88" stroke="url(#grad)" stroke-width="2.6" fill="none" stroke-linejoin="miter"
        stroke-dasharray="34 10 10 8 28 12 8 16" opacity="0.95"/>
  <g filter="url(#glitchA)" opacity="0.55">
    <path d="M 0 60 L 0 32 L 80.0 32 L 80.0 88 L 160 88 L 160 32 L 240.0 32 L 240.0 88 L 320 88 L 320 32 L 400.0 32 L 400.0 88 L 480 88 L 480 32 L 560.0 32 L 560.0 88 L 640 88 L 640 32 L 720.0 32 L 720.0 88 L 800 88 L 800 32 L 880.0 32 L 880.0 88 L 960 88 L 960 32 L 1040.0 32 L 1040.0 88 L 1120 88 L 1120 32 L 1200.0 32 L 1200.0 88 L 1280 88 L 1280 32 L 1360.0 32 L 1360.0 88 L 1440 88 L 1440 32 L 1520.0 32 L 1520.0 88 L 1600 88 L 1600 32 L 1680.0 32 L 1680.0 88 L 1760 88" stroke="#7FDFFF" stroke-width="1.8" fill="none" stroke-linejoin="miter"
          stroke-dasharray="22 10 8 8 22 10 6 14"/>
  </g>
  <g filter="url(#glitchB)" opacity="0.45">
    <path d="M 0 60 L 0 32 L 80.0 32 L 80.0 88 L 160 88 L 160 32 L 240.0 32 L 240.0 88 L 320 88 L 320 32 L 400.0 32 L 400.0 88 L 480 88 L 480 32 L 560.0 32 L 560.0 88 L 640 88 L 640 32 L 720.0 32 L 720.0 88 L 800 88 L 800 32 L 880.0 32 L 880.0 88 L 960 88 L 960 32 L 1040.0 32 L 1040.0 88 L 1120 88 L 1120 32 L 1200.0 32 L 1200.0 88 L 1280 88 L 1280 32 L 1360.0 32 L 1360.0 88 L 1440 88 L 1440 32 L 1520.0 32 L 1520.0 88 L 1600 88 L 1600 32 L 1680.0 32 L 1680.0 88 L 1760 88" stroke="#0A66FF" stroke-width="1.4" fill="none" stroke-linejoin="miter"
          stroke-dasharray="26 10 6 8 20 10 5 12"/>
  </g>
</svg>
