<svg xmlns="http://www.w3.org/2000/svg" width="1600" height="120" viewBox="0 0 1600 120" fill="none">
  <defs>
    <linearGradient id="grad" x1="0" y1="0" x2="1" y2="0">
      <stop offset="0%" stop-color="#00A0FF"/>
      <stop offset="100%" stop-color="#7FDFFF"/>
    </linearGradient>
    <filter id="glitchA" x="-20%" y="-50%" width="140%" height="200%">
      <feTurbulence type="fractalNoise" baseFrequency="0.005" numOctaves="2" seed="2" stitchTiles="stitch" result="noise"/>
      <feDisplacementMap in="SourceGraphic" in2="noise" scale="6" xChannelSelector="R" yChannelSelector="G"/>
    </filter>
    <filter id="glitchB" x="-20%" y="-50%" width="140%" height="200%">
      <feTurbulence type="fractalNoise" baseFrequency="0.01" numOctaves="1" seed="8" stitchTiles="stitch" result="noise"/>
      <feDisplacementMap in="SourceGraphic" in2="noise" scale="10" xChannelSelector="B" yChannelSelector="R"/>
    </filter>
  </defs>

  <path d="M 0 60 C 50.0 20 150.0 100 200 60 C 250.0 20 350.0 100 400 60 C 450.0 20 550.0 100 600 60 C 650.0 20 750.0 100 800 60 C 850.0 20 950.0 100 1000 60 C 1050.0 20 1150.0 100 1200 60 C 1250.0 20 1350.0 100 1400 60 C 1450.0 20 1550.0 100 1600 60" stroke="url(#grad)" stroke-width="3" fill="none" stroke-linecap="round"
        stroke-dasharray="48 12 8 10 64 16 6 32 20 12 5 40" opacity="0.9"/>
  <g filter="url(#glitchA)" opacity="0.6">
    <path d="M 0 60 C 50.0 20 150.0 100 200 60 C 250.0 20 350.0 100 400 60 C 450.0 20 550.0 100 600 60 C 650.0 20 750.0 100 800 60 C 850.0 20 950.0 100 1000 60 C 1050.0 20 1150.0 100 1200 60 C 1250.0 20 1350.0 100 1400 60 C 1450.0 20 1550.0 100 1600 60" stroke="#7FDFFF" stroke-width="2.2" fill="none"
          stroke-dasharray="30 18 6 10 50 14 7 28 18 10 4 36"/>
  </g>
  <g filter="url(#glitchB)" opacity="0.45">
    <path d="M 0 60 C 50.0 20 150.0 100 200 60 C 250.0 20 350.0 100 400 60 C 450.0 20 550.0 100 600 60 C 650.0 20 750.0 100 800 60 C 850.0 20 950.0 100 1000 60 C 1050.0 20 1150.0 100 1200 60 C 1250.0 20 1350.0 100 1400 60 C 1450.0 20 1550.0 100 1600 60" stroke="#0A66FF" stroke-width="1.6" fill="none"
          stroke-dasharray="36 10 5 8 44 12 5 22 14 8 6 30"/>
  </g>
</svg>
